<svg xmlns="http://www.w3.org/2000/svg" width="1080" height="1350" viewBox="0 0 1080 1350"><defs><linearGradient id="s" x1="0" y1="0" x2="0" y2="1"><stop offset="0" stop-color="#9cc3e0"/><stop offset="1" stop-color="#dfeaf0"/></linearGradient></defs><rect width="1080" height="1350" fill="url(#s)"/><rect x="0" y="620" width="260" height="730" fill="#f0dcc0"/><path d="M-10 620 L130.0 550 L270 620Z" fill="#c4674a"/><rect x="18" y="660" width="24" height="40" rx="3" fill="#5e6f86" opacity=".75"/><rect x="18" y="750" width="24" height="40" rx="3" fill="#5e6f86" opacity=".75"/><rect x="18" y="840" width="24" height="40" rx="3" fill="#5e6f86" opacity=".75"/><rect x="18" y="930" width="24" height="40" rx="3" fill="#5e6f86" opacity=".75"/><rect x="64" y="660" width="24" height="40" rx="3" fill="#5e6f86" opacity=".75"/><rect x="64" y="750" width="24" height="40" rx="3" fill="#5e6f86" opacity=".75"/><rect x="64" y="840" width="24" height="40" rx="3" fill="#5e6f86" opacity=".75"/><rect x="64" y="930" width="24" height="40" rx="3" fill="#5e6f86" opacity=".75"/><rect x="110" y="660" width="24" height="40" rx="3" fill="#5e6f86" opacity=".75"/><rect x="110" y="750" width="24" height="40" rx="3" fill="#5e6f86" opacity=".75"/><rect x="110" y="840" width="24" height="40" rx="3" fill="#5e6f86" opacity=".75"/><rect x="110" y="930" width="24" height="40" rx="3" fill="#5e6f86" opacity=".75"/><rect x="156" y="660" width="24" height="40" rx="3" fill="#5e6f86" opacity=".75"/><rect x="156" y="750" width="24" height="40" rx="3" fill="#5e6f86" opacity=".75"/><rect x="156" y="840" width="24" height="40" rx="3" fill="#5e6f86" opacity=".75"/><rect x="156" y="930" width="24" height="40" rx="3" fill="#5e6f86" opacity=".75"/><rect x="202" y="660" width="24" height="40" rx="3" fill="#5e6f86" opacity=".75"/><rect x="202" y="750" width="24" height="40" rx="3" fill="#5e6f86" opacity=".75"/><rect x="202" y="840" width="24" height="40" rx="3" fill="#5e6f86" opacity=".75"/><rect x="202" y="930" width="24" height="40" rx="3" fill="#5e6f86" opacity=".75"/><rect x="250" y="700" width="300" height="650" fill="#e9c9a6"/><path d="M240 700 L400.0 630 L560 700Z" fill="#c4674a"/><rect x="268" y="740" width="24" height="40" rx="3" fill="#5e6f86" opacity=".75"/><rect x="268" y="830" width="24" height="40" rx="3" fill="#5e6f86" opacity=".75"/><rect x="268" y="920" width="24" height="40" rx="3" fill="#5e6f86" opacity=".75"/><rect x="268" y="1010" width="24" height="40" rx="3" fill="#5e6f86" opacity=".75"/><rect x="314" y="740" width="24" height="40" rx="3" fill="#5e6f86" opacity=".75"/><rect x="314" y="830" width="24" height="40" rx="3" fill="#5e6f86" opacity=".75"/><rect x="314" y="920" width="24" height="40" rx="3" fill="#5e6f86" opacity=".75"/><rect x="314" y="1010" width="24" height="40" rx="3" fill="#5e6f86" opacity=".75"/><rect x="360" y="740" width="24" height="40" rx="3" fill="#5e6f86" opacity=".75"/><rect x="360" y="830" width="24" height="40" rx="3" fill="#5e6f86" opacity=".75"/><rect x="360" y="920" width="24" height="40" rx="3" fill="#5e6f86" opacity=".75"/><rect x="360" y="1010" width="24" height="40" rx="3" fill="#5e6f86" opacity=".75"/><rect x="406" y="740" width="24" height="40" rx="3" fill="#5e6f86" opacity=".75"/><rect x="406" y="830" width="24" height="40" rx="3" fill="#5e6f86" opacity=".75"/><rect x="406" y="920" width="24" height="40" rx="3" fill="#5e6f86" opacity=".75"/><rect x="406" y="1010" width="24" height="40" rx="3" fill="#5e6f86" opacity=".75"/><rect x="452" y="740" width="24" height="40" rx="3" fill="#5e6f86" opacity=".75"/><rect x="452" y="830" width="24" height="40" rx="3" fill="#5e6f86" opacity=".75"/><rect x="452" y="920" width="24" height="40" rx="3" fill="#5e6f86" opacity=".75"/><rect x="452" y="1010" width="24" height="40" rx="3" fill="#5e6f86" opacity=".75"/><rect x="540" y="580" width="280" height="770" fill="#f3e4cf"/><path d="M530 580 L680.0 510 L830 580Z" fill="#c4674a"/><rect x="558" y="620" width="24" height="40" rx="3" fill="#5e6f86" opacity=".75"/><rect x="558" y="710" width="24" height="40" rx="3" fill="#5e6f86" opacity=".75"/><rect x="558" y="800" width="24" height="40" rx="3" fill="#5e6f86" opacity=".75"/><rect x="558" y="890" width="24" height="40" rx="3" fill="#5e6f86" opacity=".75"/><rect x="604" y="620" width="24" height="40" rx="3" fill="#5e6f86" opacity=".75"/><rect x="604" y="710" width="24" height="40" rx="3" fill="#5e6f86" opacity=".75"/><rect x="604" y="800" width="24" height="40" rx="3" fill="#5e6f86" opacity=".75"/><rect x="604" y="890" width="24" height="40" rx="3" fill="#5e6f86" opacity=".75"/><rect x="650" y="620" width="24" height="40" rx="3" fill="#5e6f86" opacity=".75"/><rect x="650" y="710" width="24" height="40" rx="3" fill="#5e6f86" opacity=".75"/><rect x="650" y="800" width="24" height="40" rx="3" fill="#5e6f86" opacity=".75"/><rect x="650" y="890" width="24" height="40" rx="3" fill="#5e6f86" opacity=".75"/><rect x="696" y="620" width="24" height="40" rx="3" fill="#5e6f86" opacity=".75"/><rect x="696" y="710" width="24" height="40" rx="3" fill="#5e6f86" opacity=".75"/><rect x="696" y="800" width="24" height="40" rx="3" fill="#5e6f86" opacity=".75"/><rect x="696" y="890" width="24" height="40" rx="3" fill="#5e6f86" opacity=".75"/><rect x="742" y="620" width="24" height="40" rx="3" fill="#5e6f86" opacity=".75"/><rect x="742" y="710" width="24" height="40" rx="3" fill="#5e6f86" opacity=".75"/><rect x="742" y="800" width="24" height="40" rx="3" fill="#5e6f86" opacity=".75"/><rect x="742" y="890" width="24" height="40" rx="3" fill="#5e6f86" opacity=".75"/><rect x="810" y="680" width="270" height="670" fill="#e6bf9c"/><path d="M800 680 L945.0 610 L1090 680Z" fill="#c4674a"/><rect x="828" y="720" width="24" height="40" rx="3" fill="#5e6f86" opacity=".75"/><rect x="828" y="810" width="24" height="40" rx="3" fill="#5e6f86" opacity=".75"/><rect x="828" y="900" width="24" height="40" rx="3" fill="#5e6f86" opacity=".75"/><rect x="828" y="990" width="24" height="40" rx="3" fill="#5e6f86" opacity=".75"/><rect x="874" y="720" width="24" height="40" rx="3" fill="#5e6f86" opacity=".75"/><rect x="874" y="810" width="24" height="40" rx="3" fill="#5e6f86" opacity=".75"/><rect x="874" y="900" width="24" height="40" rx="3" fill="#5e6f86" opacity=".75"/><rect x="874" y="990" width="24" height="40" rx="3" fill="#5e6f86" opacity=".75"/><rect x="920" y="720" width="24" height="40" rx="3" fill="#5e6f86" opacity=".75"/><rect x="920" y="810" width="24" height="40" rx="3" fill="#5e6f86" opacity=".75"/><rect x="920" y="900" width="24" height="40" rx="3" fill="#5e6f86" opacity=".75"/><rect x="920" y="990" width="24" height="40" rx="3" fill="#5e6f86" opacity=".75"/><rect x="966" y="720" width="24" height="40" rx="3" fill="#5e6f86" opacity=".75"/><rect x="966" y="810" width="24" height="40" rx="3" fill="#5e6f86" opacity=".75"/><rect x="966" y="900" width="24" height="40" rx="3" fill="#5e6f86" opacity=".75"/><rect x="966" y="990" width="24" height="40" rx="3" fill="#5e6f86" opacity=".75"/><rect x="1012" y="720" width="24" height="40" rx="3" fill="#5e6f86" opacity=".75"/><rect x="1012" y="810" width="24" height="40" rx="3" fill="#5e6f86" opacity=".75"/><rect x="1012" y="900" width="24" height="40" rx="3" fill="#5e6f86" opacity=".75"/><rect x="1012" y="990" width="24" height="40" rx="3" fill="#5e6f86" opacity=".75"/><rect x="330" y="1130" width="400" height="150" rx="24" fill="#f2c14e"/><rect x="360" y="1160" width="80" height="60" rx="8" fill="#5e6f86"/><rect x="460" y="1160" width="80" height="60" rx="8" fill="#5e6f86"/><rect x="560" y="1160" width="80" height="60" rx="8" fill="#5e6f86"/><rect y="1280" width="1080" height="70" fill="#8c8173"/></svg>
